<svg id="Grupo_62" data-name="Grupo 62" xmlns="http://www.w3.org/2000/svg" width="25.846" height="25.852" viewBox="0 0 25.846 25.852">
  <path id="Trazado_1" data-name="Trazado 1" d="M566.514-606.2a4.238,4.238,0,0,1-1.5,2.253c-.318.3-.62.617-.93.926a2.585,2.585,0,0,0-.195.2c-.085.105-.145.118-.253.01q-2.645-2.655-5.3-5.3c-.106-.106-.091-.158.006-.253.6-.6,1.2-1.2,1.805-1.8a2.747,2.747,0,0,1,1.6-.779c.045-.006.1.017.125-.052h.05c.124.057.255.011.381.026a2.3,2.3,0,0,1,1.669.587c.655.569,1.252,1.2,1.846,1.826a2.478,2.478,0,0,1,.7,1.55Z" transform="translate(-540.668 611)" fill="#fff"/>
  <path id="Trazado_2" data-name="Trazado 2" d="M224.89-506.067a.566.566,0,0,1-.567-.737q.4-1.613.8-3.225c.245-.985.493-1.97.736-2.955a.886.886,0,0,1,.241-.431q7.006-7,14.007-14.012c.119-.119.179-.133.307,0q2.616,2.631,5.247,5.247c.132.131.107.192-.008.307q-7,6.991-13.994,13.989a.9.9,0,0,1-.426.253l-6.2,1.54C224.971-506.081,224.913-506.071,224.89-506.067Z" transform="translate(-224.301 531.919)" fill="#fff"/>
</svg>
