<svg xmlns="http://www.w3.org/2000/svg" width="19.413" height="23.747" viewBox="0 0 19.413 23.747">
  <g id="Grupo_104" data-name="Grupo 104" transform="translate(0 -0.001)">
    <path id="Trazado_10" data-name="Trazado 10" d="M99.106,138.482h.232a.156.156,0,0,1,0-.022.457.457,0,0,0-.236.022" transform="translate(-82.127 -114.734)" fill="#fff"/>
    <path id="Trazado_11" data-name="Trazado 11" d="M99.106,138.371a.457.457,0,0,1,.236-.022.127.127,0,0,1,0-.018.275.275,0,0,0-.239.04" transform="translate(-82.127 -114.623)" fill="#fff"/>
    <path id="Trazado_12" data-name="Trazado 12" d="M19.2,5.732Q16.416,2.959,13.643.181A.565.565,0,0,0,13.213,0q-4.76.006-9.519,0A2.006,2.006,0,0,0,2.9.138,2.585,2.585,0,0,0,1.252,2.619q0,2.2,0,4.4,0,2.247,0,4.494c0,.165,0,.29-.231.313A1.056,1.056,0,0,0,0,12.974Q0,15.986,0,19a1.045,1.045,0,0,0,1.033,1.154c.173.02.22.1.218.254,0,.3-.007.6,0,.9a2.427,2.427,0,0,0,.394,1.29,2.375,2.375,0,0,0,1.8,1.149H16.979a.275.275,0,0,1,.239-.04.13.13,0,0,0,0,.018l.033,0a1.881,1.881,0,0,0,.524-.083,2.545,2.545,0,0,0,1.638-2.269q.006-7.551,0-15.1a.706.706,0,0,0-.218-.536M2.712,18.02c.008-.632,0-1.264,0-1.9s.008-1.265-.005-1.9c0-.172.049-.223.211-.235a4.988,4.988,0,0,1,2.016.077,1.2,1.2,0,0,1,.847,1.169,1.315,1.315,0,0,1-.742,1.279,2.289,2.289,0,0,1-1.147.2c-.167-.012-.229.014-.221.2.016.385,0,.771.008,1.156,0,.126-.026.178-.163.17a3.974,3.974,0,0,0-.6,0c-.188.018-.209-.063-.207-.222M16.681,22.2H3.988a1.013,1.013,0,0,1-1.131-1.129c0-.27.009-.541,0-.811-.007-.147.042-.181.182-.179.517.008,1.034,0,1.552,0,3.4,0,6.794-.013,10.191.009a1.125,1.125,0,0,0,1.229-1.22c-.021-1.93-.007-3.86-.007-5.791a1.057,1.057,0,0,0-1.21-1.2q-5.837,0-11.673,0c-.206,0-.265-.044-.265-.26q.012-4.447.005-8.895A1.023,1.023,0,0,1,4.019,1.571c2.841,0,5.682,0,8.524-.015.215,0,.248.065.248.259,0,1.088-.041,2.178.021,3.265A1.68,1.68,0,0,0,14.338,6.6c1.057.031,2.115.017,3.172.01.2,0,.272.03.271.255-.009,2.386-.006,4.772-.006,7.157h.039q0,3.521,0,7.042A1.008,1.008,0,0,1,16.681,22.2m-10.268-6.1c0-.64,0-1.281,0-1.921,0-.064-.048-.158.083-.174a5.622,5.622,0,0,1,2.319.063,1.833,1.833,0,0,1,1.371,2,2.057,2.057,0,0,1-2.033,2.169,7.606,7.606,0,0,1-1.616,0c-.15-.013-.125-.1-.125-.189q0-.972,0-1.944m7-1.39c-.117.125-.365.033-.555.038-.278.008-.557.017-.833,0-.2-.014-.251.059-.233.245a2.87,2.87,0,0,1,0,.509c-.014.173.028.241.221.232.385-.017.772,0,1.158-.008.132,0,.174.035.165.167-.014.2.065.461-.035.582s-.377.034-.575.039c-.247.007-.495.01-.741,0-.149-.007-.2.033-.194.189.011.455,0,.911.007,1.367,0,.127-.027.176-.163.169a6.2,6.2,0,0,0-.648,0c-.138.007-.165-.045-.164-.172.006-.656,0-1.313,0-1.969s0-1.3,0-1.946c0-.153.041-.193.193-.192q1.123.012,2.247,0c.157,0,.2.047.188.2-.019.19.079.437-.036.559" transform="translate(0 0)" fill="#fff"/>
    <path id="Trazado_13" data-name="Trazado 13" d="M43.082,88.31c0,.112.022.165.147.173a1.872,1.872,0,0,0,.839-.109,1.253,1.253,0,0,0,.788-1.219,1.323,1.323,0,0,0-1.617-1.51c-.126.012-.159.067-.158.191q.009,1.237,0,2.474" transform="translate(-35.7 -70.96)" fill="#fff"/>
    <path id="Trazado_14" data-name="Trazado 14" d="M21.953,86.889a.677.677,0,0,0,.679-.7c-.012-.377-.278-.6-.726-.607-.428-.008-.428-.008-.428.41v.486c0,.458,0,.458.475.412" transform="translate(-17.798 -70.917)" fill="#fff"/>
  </g>
</svg>
