<svg xmlns="http://www.w3.org/2000/svg" width="22.9" height="22.9" viewBox="0 0 22.9 22.9">
  <path id="Unión_1" data-name="Unión 1" d="M5452.809-8609.066a6.232,6.232,0,0,1-6.226-6.224v-10.45a6.234,6.234,0,0,1,6.226-6.227h10.451a6.234,6.234,0,0,1,6.224,6.227v10.45a6.231,6.231,0,0,1-6.224,6.224Zm-4.227-16.674v10.45a4.23,4.23,0,0,0,4.227,4.225h10.451a4.23,4.23,0,0,0,4.224-4.225v-10.45a4.228,4.228,0,0,0-4.224-4.225h-10.451A4.229,4.229,0,0,0,5448.583-8625.74Zm5.834,8.843a5.174,5.174,0,0,1-.964-5.994,5.152,5.152,0,0,1,4.625-2.851,5.355,5.355,0,0,1,.76.056,5.133,5.133,0,0,1,2.9,1.463,5.136,5.136,0,0,1,1.462,2.9,5.168,5.168,0,0,1-2.794,5.386,5.178,5.178,0,0,1-2.329.555A5.147,5.147,0,0,1,5454.417-8616.9Zm.821-5.093a3.177,3.177,0,0,0,.591,3.678,3.167,3.167,0,0,0,2.251.932,3.218,3.218,0,0,0,1.43-.34,3.178,3.178,0,0,0,1.716-3.308,3.162,3.162,0,0,0-2.68-2.678,3.016,3.016,0,0,0-.468-.037A3.162,3.162,0,0,0,5455.238-8621.99Z" transform="translate(-5446.583 8631.967)" fill="#fff"/>
</svg>
