<svg xmlns="http://www.w3.org/2000/svg" width="24.927" height="24.927" viewBox="0 0 24.927 24.927">
  <g id="Grupo_10643" data-name="Grupo 10643" transform="translate(-360.947 -966)">
    <path id="Trazado_2879" data-name="Trazado 2879" d="M97.269,80.853a2.615,2.615,0,0,1-2.769,2.77,2.664,2.664,0,0,1-2.77-2.631,2.808,2.808,0,0,1,2.77-2.908A2.692,2.692,0,0,1,97.269,80.853Z" transform="translate(269.217 887.916)" fill="#fff"/>
    <rect id="Rectángulo_832" data-name="Rectángulo 832" width="5.539" height="18.003" transform="translate(360.947 972.924)" fill="#fff"/>
    <path id="Trazado_2880" data-name="Trazado 2880" d="M113.59,87.952a6.065,6.065,0,0,0-5.262,2.769h-.139l-.277-2.354h-4.986c0,1.524.139,3.324.139,5.4v11.909H108.6V95.846a4.265,4.265,0,0,1,.139-1.385c.415-.969,1.108-2.216,2.631-2.216,1.939,0,2.769,1.662,2.769,3.877v9.555h5.539V95.43C119.683,90.306,117.052,87.952,113.59,87.952Z" transform="translate(266.19 885.249)" fill="#fff"/>
  </g>
</svg>
