<svg xmlns="http://www.w3.org/2000/svg" width="13.036" height="13.5" viewBox="0 0 13.036 13.5">
  <path id="Buscar" d="M2065,1024.889q-1.521-1.582-3.045-3.161c-.089-.092-.1-.145-.017-.25a5.207,5.207,0,0,0,1.093-2.4,5.3,5.3,0,0,0-.472-3.368,5.407,5.407,0,0,0-2.853-2.657,5.418,5.418,0,0,0-5.127.571,5.41,5.41,0,0,0-1.875,2.245,5.285,5.285,0,0,0-.416,3.085,5.339,5.339,0,0,0,1.769,3.219,5.255,5.255,0,0,0,2.763,1.313,5.334,5.334,0,0,0,3.864-.85c.09-.059.131-.047.2.026q1.481,1.547,2.967,3.09a1.333,1.333,0,0,0,.553.4h.264a.823.823,0,0,0,.472-.33A.727.727,0,0,0,2065,1024.889Zm-7.331-2.759a4.028,4.028,0,1,1,4.027-4.028A4.034,4.034,0,0,1,2057.668,1022.13Z" transform="translate(-2052.217 -1012.652)" fill="#fff"/>
</svg>
