<?xml version="1.0" encoding="utf-8"?>
<!-- Generator: Adobe Illustrator 27.3.1, SVG Export Plug-In . SVG Version: 6.00 Build 0)  -->
<svg version="1.1" id="marcadores" xmlns="http://www.w3.org/2000/svg" xmlns:xlink="http://www.w3.org/1999/xlink" x="0px" y="0px"
	 viewBox="0 0 18.1 22" style="enable-background:new 0 0 18.1 22;" xml:space="preserve">
<style type="text/css">
	.st0{fill:#FFFFFF;}
</style>
<g>
	<path id="Trazado_17" class="st0" d="M9.1,0C4.1,0,0,4.1,0,9c0,0,0,0,0,0c0,3.6,4.7,9.3,7.3,12.2c0.9,0.9,2.3,1,3.2,0.2
		c0.1,0,0.1-0.1,0.2-0.2c2.6-2.9,7.3-8.6,7.3-12.2C18.1,4.1,14,0,9.1,0z M9.1,13.1c-2,0-3.6-1.6-3.6-3.6s1.6-3.6,3.6-3.6
		c2,0,3.6,1.6,3.6,3.6C12.7,11.5,11,13.1,9.1,13.1z"/>
	<g>
		<path d="M9.1,13.1c2,0,3.6-1.6,3.6-3.6c0-2-1.6-3.6-3.6-3.6c-2,0-3.6,1.6-3.6,3.6S7.1,13.1,9.1,13.1z"/>
	</g>
</g>
</svg>
