<svg xmlns="http://www.w3.org/2000/svg" width="19.44" height="22.127" viewBox="0 0 19.44 22.127">
  <g id="tiktok-logo-4501" transform="translate(-15.351)">
    <path id="Trazado_2923" data-name="Trazado 2923" d="M34.781,5.54a5.575,5.575,0,0,1-3.369-1.126,5.588,5.588,0,0,1-2.119-3.369A5.61,5.61,0,0,1,29.185,0H25.572V9.872l0,5.407a3.275,3.275,0,1,1-2.246-3.1V8.508a7.109,7.109,0,0,0-1.042-.077,6.928,6.928,0,0,0-5.206,2.328,6.789,6.789,0,0,0,.307,9.362,7.031,7.031,0,0,0,.653.57,6.931,6.931,0,0,0,4.247,1.435,7.111,7.111,0,0,0,1.042-.077,6.9,6.9,0,0,0,3.857-1.929,6.763,6.763,0,0,0,2.029-4.814l-.019-8.075a9.12,9.12,0,0,0,2.029,1.183,9.138,9.138,0,0,0,3.572.72V5.54Z" transform="translate(0)" fill="#fff"/>
  </g>
</svg>
