<svg id="Icon_x" xmlns="http://www.w3.org/2000/svg" xmlns:xlink="http://www.w3.org/1999/xlink" width="19.438" height="19.899" viewBox="0 0 19.438 19.899">
  <defs>
    <clipPath id="clip-path">
      <rect id="Rectángulo_929" data-name="Rectángulo 929" width="19.438" height="19.899" fill="#fff"/>
    </clipPath>
  </defs>
  <g id="Grupo_10800" data-name="Grupo 10800" clip-path="url(#clip-path)">
    <path id="Trazado_2888" data-name="Trazado 2888" d="M19.343,19.733Q15.519,14.167,11.691,8.6a.227.227,0,0,1,.012-.338C13.663,6,18.389.5,18.822,0c-.5,0-1.708.019-1.708.019s-4.185,4.828-6.169,7.145c-.128.15-.166.113-.259-.022C9.085,4.8,5.828.019,5.828.019L0,.028S5.023,7.339,7.478,10.9a.2.2,0,0,1-.011.3q-3.048,3.529-6.086,7.066C.917,18.812.46,19.356,0,19.9H1.711Q2.9,18.505,4.1,17.112,6.167,14.7,8.238,12.3c.078-.091.116-.123.2,0q2.582,3.769,5.171,7.532a.645.645,0,0,1,.035.067h5.792c-.007-.069-.059-.113-.095-.165M16.93,18.661c-.771,0-1.542,0-2.313,0a.268.268,0,0,1-.249-.137Q8.406,10,2.44,1.465c-.033-.047-.065-.1-.119-.175.869,0,1.7,0,2.536,0,.119,0,.151.081.2.152Q7.072,4.315,9.084,7.194l7.927,11.338c.021.031.042.062.062.092-.041.064-.1.037-.144.037" fill="#fff"/>
  </g>
</svg>
