<svg xmlns="http://www.w3.org/2000/svg" width="38.82" height="35.335" viewBox="0 0 38.82 35.335">
  <path id="visibility_off" d="M65.983-845.325l-1.941-1.941a4.376,4.376,0,0,0-1.191-5.205,4.712,4.712,0,0,0-5.073-1.059l-1.941-1.941a5.335,5.335,0,0,1,1.676-.706,8.165,8.165,0,0,1,1.9-.221,7.235,7.235,0,0,1,5.316,2.184A7.235,7.235,0,0,1,66.91-848.9a7.712,7.712,0,0,1-.243,1.919A5.826,5.826,0,0,1,65.983-845.325Zm5.691,5.691L69.909-841.4a20.684,20.684,0,0,0,3.772-3.551,14.176,14.176,0,0,0,2.36-3.948,17.608,17.608,0,0,0-6.617-7.742,17.323,17.323,0,0,0-9.573-2.845,21.185,21.185,0,0,0-3.794.353,14.072,14.072,0,0,0-3.044.838l-2.029-2.073a20.009,20.009,0,0,1,3.948-1.235,21.811,21.811,0,0,1,4.7-.529,19.915,19.915,0,0,1,11.536,3.6A20.845,20.845,0,0,1,78.82-848.9a21.8,21.8,0,0,1-2.956,5.161A21.3,21.3,0,0,1,71.674-839.634Zm2.559,9.97-7.411-7.279a17.139,17.139,0,0,1-3.485.948,23.323,23.323,0,0,1-3.926.331,20.225,20.225,0,0,1-11.69-3.6A21.072,21.072,0,0,1,40-848.9a20.011,20.011,0,0,1,2.448-4.478,25.069,25.069,0,0,1,3.816-4.169L40.706-863.1l1.853-1.9,33.394,33.394Zm-26.16-26.027a16.235,16.235,0,0,0-3.154,3.132,14.522,14.522,0,0,0-2.184,3.662,17.666,17.666,0,0,0,6.771,7.742,18.853,18.853,0,0,0,10.257,2.845,23.1,23.1,0,0,0,2.867-.176,6.85,6.85,0,0,0,2.117-.529l-2.823-2.823a4.614,4.614,0,0,1-1.191.331,8.6,8.6,0,0,1-1.323.11,7.294,7.294,0,0,1-5.294-2.162,7.178,7.178,0,0,1-2.206-5.338,8.039,8.039,0,0,1,.11-1.324,5.4,5.4,0,0,1,.331-1.191ZM61.528-849.428ZM56.41-846.869Z" transform="translate(-40 865)" fill="#5479fa"/>
</svg>
