<svg xmlns="http://www.w3.org/2000/svg" width="38.82" height="26.468" viewBox="0 0 38.82 26.468">
  <path id="visibility" d="M59.415-779.266a7.22,7.22,0,0,0,5.311-2.189,7.246,7.246,0,0,0,2.184-5.316,7.22,7.22,0,0,0-2.189-5.311,7.246,7.246,0,0,0-5.316-2.184,7.22,7.22,0,0,0-5.311,2.189,7.246,7.246,0,0,0-2.184,5.316,7.22,7.22,0,0,0,2.189,5.31A7.246,7.246,0,0,0,59.415-779.266Zm-.005,5.735a19.77,19.77,0,0,1-11.646-3.661A22.3,22.3,0,0,1,40-786.766a22.3,22.3,0,0,1,7.764-9.573A19.771,19.771,0,0,1,59.41-800a19.771,19.771,0,0,1,11.646,3.661,22.3,22.3,0,0,1,7.764,9.573,22.3,22.3,0,0,1-7.764,9.573A19.77,19.77,0,0,1,59.41-773.532ZM59.41-786.766ZM59.4-776.178a17.752,17.752,0,0,0,9.823-2.889,18.751,18.751,0,0,0,6.816-7.7,18.768,18.768,0,0,0-6.808-7.7,17.716,17.716,0,0,0-9.815-2.889,17.752,17.752,0,0,0-9.823,2.889,19.066,19.066,0,0,0-6.86,7.7,19.084,19.084,0,0,0,6.852,7.7A17.716,17.716,0,0,0,59.4-776.178Z" transform="translate(-40 800)" fill="#5479fa"/>
</svg>
